<svg xmlns="http://www.w3.org/2000/svg"
shape-rendering="geometricPrecision"
width="4000" height="4000" viewBox="0 0 1024 1024"><rect width="100%" height="100%" fill="#FFFAF3" />
  <metadata>null</metadata>

<path d="
M 224.972 729.12
C 225.575 725.23 225.094 720.926 225.06 716.995
C 224.999 709.829 225.069 702.661 225.074 695.495
C 225.091 672.999 225.159 650.503 225.159 628.006
C 225.159 622.015 225.104 616.023 225.076 610.032
C 225.06 606.718 224.766 603.254 225.29 599.967
C 226.646 591.464 235.27 589.1 242.546 589.348
C 245.078 589.435 247.798 589.455 250.202 590.356
C 253.887 591.738 257.308 595.788 258.033 599.658
C 258.94 604.498 258.174 610.084 258.177 615
C 258.181 624.665 258.326 634.331 258.306 643.996
C 258.297 648.428 257.631 653.674 258.558 658.015
C 259.891 657.149 261.039 655.177 262.181 653.986
C 265.764 650.249 269.207 646.337 272.619 642.445
C 283.333 630.224 294.343 618.268 305.118 606.103
C 308.159 602.67 311.23 599.236 314.386 595.908
C 316.25 593.941 318.3 591.6 320.71 590.294
C 323.111 588.994 326.852 589.591 329.503 589.593
C 335.956 589.596 342.41 589.605 348.861 589.769
C 351.247 589.83 356.281 591.28 354.75 594.77
C 353.691 597.183 350.935 599.164 349.204 601.09
C 345.435 605.282 341.793 609.605 338.106 613.869
C 325.348 628.623 312.675 643.558 299.176 657.645
C 299.108 658.232 299.703 658.674 300.073 659.134
C 301.101 660.413 302.072 661.776 302.999 663.131
C 306.721 668.573 310.648 673.892 314.543 679.21
C 324.962 693.434 334.792 708.088 345.199 722.32
C 348.38 726.671 351.636 730.963 354.773 735.35
C 356.188 737.33 358.332 739.743 358.9 742.161
C 359.69 745.53 355.437 747.74 352.787 748.098
C 346.216 748.986 339.126 748.203 332.503 748.195
C 329.942 748.192 326.085 748.823 323.781 747.509
C 321.411 746.158 319.865 743.833 318.259 741.71
C 315.21 737.68 312.584 733.355 309.579 729.295
C 298.08 713.756 287.503 697.535 275.946 682.057
C 274.195 683.413 272.858 685.52 271.331 687.137
C 268.244 690.405 265.049 693.648 262.197 697.122
C 261.083 698.48 258.474 700.708 258.296 702.472
C 257.426 711.126 258.237 720.228 258.206 728.925
C 258.188 734.018 258.715 738.995 255.335 743.208
C 251.912 747.475 246.753 748.41 241.621 748.418
C 236.663 748.426 232.176 747.808 228.69 743.873
C 225.031 739.743 224.853 734.353 224.972 729.12 Z"
opacity="1" fill="rgb(251,135,88)" fill-rule="evenodd" />
<path d="
M 315.455 380.606
C 316.03 377.208 316.042 373.648 316.43 370.215
C 317.218 363.247 318.31 356.298 319.976 349.483
C 326.552 322.584 339.141 297.945 356.6 276.475
C 391.983 232.962 446.516 206.748 502.361 204.352
C 523.655 203.439 545.126 206.102 565.67 211.676
C 578.354 215.118 590.487 220.222 602.281 225.966
C 608.132 228.816 614.504 231.675 619.656 235.695
C 619.662 238.218 618.169 240.239 619.068 242.902
C 619.556 244.348 620.412 245.736 621.442 246.858
C 621.968 247.431 622.941 247.939 623.268 248.618
C 622.285 251.279 620.548 254.107 620.452 257.046
C 621.201 257.804 619.895 258.092 619.073 258.648
C 616.947 260.086 614.955 261.681 613.124 263.481
C 610.449 266.113 606.757 270.512 606.934 274.549
C 607.022 276.539 607.935 278.104 608.771 279.835
C 608.226 279.877 607.397 279.083 606.958 278.777
C 605.513 277.768 603.981 276.893 602.532 275.889
C 597.087 272.118 591.614 268.424 585.826 265.186
C 570.014 256.342 551.736 250.955 533.854 248.418
C 484.036 241.35 431.542 258.786 396.58 295.165
C 384.42 307.817 375.047 323.255 368.152 339.294
C 362.258 353.006 358.64 367.957 357.867 382.889
C 357.268 394.458 357.529 406.222 359.401 417.666
C 361.946 433.224 367.912 448.627 375.427 462.438
C 379.727 470.341 385.294 477.762 390.911 484.763
C 393.093 487.482 395.304 490.17 397.79 492.621
C 398.207 493.032 400.28 494.664 399.892 495.185
C 394.957 496.882 390.166 499.441 385.549 501.856
C 377.607 506.01 370.045 510.477 362.534 515.3
C 361.91 514.842 361.528 513.974 361.016 513.379
C 359.514 511.633 357.951 509.936 356.502 508.146
C 351.627 502.127 347.21 495.783 342.982 489.296
C 322.246 457.479 312.89 418.378 315.455 380.606 Z"
opacity="1" fill="rgb(251,135,88)" fill-rule="evenodd" />
<path d="
M 370.94 597.09
C 373.305 582.607 392.862 576.31 402.814 587.5
C 404.319 589.192 405.5 591.186 406.277 593.314
C 407.492 596.646 407.621 600.409 407.021 603.89
C 404.878 616.322 389.311 621.274 379.04 615.187
C 372.908 611.552 369.806 604.038 370.94 597.09 Z"
opacity="1" fill="rgb(68,69,69)" fill-rule="evenodd" />
<path d="
M 372.213 524.96
C 381.104 519.171 390.453 514.19 399.905 509.336
C 403.615 507.431 407.542 505.999 411.143 503.912
C 411.777 504.046 412.681 505.105 413.222 505.519
C 414.863 506.773 416.53 507.98 418.211 509.179
C 423.288 512.804 428.771 515.876 434.256 518.83
C 450.464 527.56 467.924 533.689 486.164 536.424
C 535.589 543.836 589.521 528.977 625.091 493.082
C 640.16 477.874 651.913 458.612 659.272 438.571
C 663.855 426.092 666.414 412.66 666.817 399.385
C 668.227 397.954 670.855 397.1 672.599 396.041
C 676.605 393.609 680.445 390.87 684.193 388.06
C 693.357 381.186 699.909 372.555 706.395 363.263
C 707.223 362.974 707.2 363.955 707.311 364.606
C 707.627 366.465 707.975 368.332 708.193 370.207
C 709.072 377.778 709.489 385.398 709.567 393.018
C 709.869 422.522 701.76 451.798 688.064 477.793
C 681.017 491.168 672.006 503.09 662.206 514.525
C 651.683 526.803 638.932 537.562 625.433 546.419
C 606.838 558.62 587.068 567.303 565.745 573.523
C 556.592 576.192 546.936 577.73 537.488 578.89
C 507.265 582.6 476.311 579.678 447.36 570.226
C 426.258 563.337 405.661 552.859 388.282 538.966
C 384.252 535.744 380.226 532.554 376.407 529.08
C 375.205 527.986 372.803 526.45 372.213 524.96 Z"
opacity="1" fill="rgb(111,181,139)" fill-rule="evenodd" />
<path d="
M 372.904 642.591
C 374.268 634.349 381.765 631.935 389.037 631.902
C 395.41 631.874 401.211 632.791 404.448 639.009
C 406.018 642.026 405.716 645.418 405.709 648.708
C 405.699 654.153 405.706 659.598 405.695 665.042
C 405.654 685.364 405.785 705.686 405.847 726.007
C 405.871 733.882 406.785 742.235 398.831 746.723
C 397.764 747.325 396.629 747.904 395.42 748.156
C 387.492 749.811 377.341 748.767 373.738 740.421
C 372.325 737.145 372.782 733.294 372.799 729.816
C 372.828 723.71 372.846 717.604 372.839 711.498
C 372.822 695.999 372.813 680.5 372.82 665
C 372.823 660.203 372.84 655.406 372.818 650.609
C 372.806 647.998 372.475 645.177 372.904 642.591 Z"
opacity="1" fill="rgb(69,69,69)" fill-rule="evenodd" />
<path d="
M 377.456 424.587
C 378.234 421.086 378.975 417.579 380.921 414.498
C 386.266 406.032 395.361 401.915 404.842 399.945
C 413.978 398.046 423.181 396.974 432.517 397.545
C 436.306 397.777 439.953 398.216 443.696 398.858
C 445.407 399.151 447.402 399.177 449.001 399.883
C 444.481 408.704 445.58 418.849 445.561 428.493
C 445.529 444.937 445.409 461.388 445.301 477.82
C 443.176 478.948 440.357 479.174 438.062 479.912
C 432.495 481.703 426.964 483.439 421.458 485.414
C 419.432 486.141 417.417 486.923 415.437 487.765
C 414.786 488.041 414.024 488.682 413.298 488.543
C 399.986 477.261 389.933 461.899 382.83 446.123
C 379.781 439.35 376.37 432.244 377.456 424.587 Z"
opacity="1" fill="rgb(111,182,139)" fill-rule="evenodd" />
<path d="
M 398.91 357.1
C 399.293 353.029 400.515 349.057 402.656 345.554
C 406.509 339.249 412.36 334.508 419.494 332.387
C 433.828 328.125 449.77 336.761 454.268 350.937
C 455.377 354.432 455.82 358.27 455.499 361.929
C 455.133 366.095 453.902 370.177 451.816 373.801
C 449.809 377.287 447.239 380.368 443.985 382.745
C 440.295 385.442 435.839 387.394 431.32 388.115
C 413.259 390.993 397.229 374.982 398.91 357.1 Z"
opacity="1" fill="rgb(112,182,139)" fill-rule="evenodd" />
<path d="
M 426.404 643.595
C 427.205 638.391 430.924 633.919 436.041 632.436
C 438.203 631.809 440.733 632.038 442.962 632.027
C 445.715 632.012 448.819 631.928 451.286 633.321
C 455.861 635.905 457.505 640.019 457.942 645.012
C 459.346 644.601 460.706 642.483 461.841 641.501
C 464.662 639.063 467.737 636.876 471.073 635.199
C 486.313 627.536 505.391 628.632 519.957 637.37
C 532.475 644.879 540.446 658.964 543.563 672.924
C 549.846 701.053 539.905 735.421 511.021 746.639
C 498.476 751.51 484.087 751.818 471.681 746.271
C 468.511 744.853 465.688 742.96 462.974 740.811
C 461.683 739.789 460.191 737.951 458.496 737.707
C 458.644 748.617 458.213 759.58 458.235 770.502
C 458.244 775.323 459.3 781.519 457.002 785.927
C 453.8 792.07 447.98 793.413 441.594 793.391
C 435.434 793.369 429.722 791.927 427.208 785.58
C 425.444 781.124 426.337 775.691 426.332 770.997
C 426.321 761.332 426.292 751.666 426.309 742
C 426.35 719.834 426.245 697.668 426.283 675.502
C 426.295 668.668 426.288 661.835 426.281 655.002
C 426.278 651.226 426.025 647.357 426.404 643.595 Z
M 457.919 685.616
C 456.956 695.695 458.869 708.382 466.588 715.629
C 475.688 724.173 492.161 725.361 501.786 717.044
C 508.242 711.466 511.523 703.017 512.261 694.649
C 513.242 683.526 510.713 670.549 502.058 662.805
C 492.357 654.125 476.044 655.307 467.096 664.394
C 461.538 670.037 458.66 677.848 457.919 685.616 Z"
opacity="1" fill="rgb(68,69,68)" fill-rule="evenodd" />
<path d="
M 456.437 411.099
C 456.973 407.812 457.502 404.954 458.979 401.921
C 462.889 393.891 470.993 388.587 479.143 385.682
C 492.785 380.818 507.908 380.479 522.217 381.249
C 528.076 381.565 534.069 382.338 539.727 383.928
C 547.439 386.095 554.937 389.002 560.706 394.773
C 569.139 403.208 568.742 413.91 568.723 424.999
C 568.694 441.739 568.138 458.628 568.681 475.35
C 564.845 475.73 560.269 474.026 556.448 473.539
C 546.714 472.299 537.003 471.175 527.19 470.774
C 511.957 470.152 496.771 470.419 481.599 471.961
C 473.282 472.807 465.024 474.46 456.718 475.218
C 456.247 472.466 456.553 469.444 456.511 466.655
C 456.419 460.519 456.552 454.392 456.543 448.262
C 456.531 440.004 456.403 431.753 456.369 423.493
C 456.352 419.395 456.067 415.182 456.437 411.099 Z"
opacity="1" fill="rgb(111,181,139)" fill-rule="evenodd" />
<path d="
M 480.44 336.603
C 480.72 332.752 481.578 329.238 483.238 325.743
C 490.122 311.243 507.348 303.475 522.741 308.724
C 527.953 310.502 532.778 313.881 536.416 317.984
C 539.022 320.924 541.097 324.258 542.419 327.964
C 544.043 332.515 544.647 337.147 544.3 341.968
C 543.997 346.177 542.632 350.391 540.521 354.035
C 532.261 368.291 514.372 374.963 499.117 367.803
C 495.025 365.882 491.522 363.187 488.494 359.841
C 485.844 356.911 483.68 353.483 482.259 349.795
C 480.669 345.669 480.121 341.008 480.44 336.603 Z"
opacity="1" fill="rgb(111,181,138)" fill-rule="evenodd" />
<path d="
M 559.974 647.118
C 560.16 645.738 560.025 644.326 560.272 642.952
C 560.807 639.969 563.009 636.866 565.365 635.042
C 572.307 629.664 586.236 630.524 590.913 638.583
C 591.914 640.309 592.029 642.907 592.191 644.852
C 593.512 644.867 595.3 642.083 596.225 641.205
C 599.221 638.363 602.763 636.033 606.503 634.297
C 619.88 628.087 636.827 628.531 650.006 635.022
C 665.385 642.598 674.771 658.422 677.725 674.888
C 681.916 698.256 675.894 725.07 656.254 740.017
C 652.8 742.646 648.848 744.77 644.853 746.449
C 633.189 751.35 619.393 751.822 607.61 747.091
C 603.845 745.58 600.147 743.605 596.997 741.031
C 595.869 740.11 593.889 737.578 592.379 737.744
C 592.575 748.593 592.27 759.495 592.279 770.353
C 592.282 774.732 593.397 781.115 591.301 785.099
C 587.795 791.764 581.888 793.343 574.845 793.351
C 568.929 793.357 563.114 790.987 560.95 784.957
C 559.404 780.648 560.29 775.004 560.292 770.502
C 560.297 761.002 560.251 751.503 560.24 742.004
C 560.214 721.505 560.303 701.006 560.188 680.507
C 560.144 672.673 560.122 664.839 560.103 657.005
C 560.095 653.731 559.76 650.379 559.974 647.118 Z
M 591.436 686.621
C 590.732 696.548 592.536 708.469 600.257 715.525
C 609.43 723.907 624.845 725.373 634.819 717.465
C 641.375 712.267 645.139 703.319 645.752 695.1
C 646.56 684.257 644.779 671.105 636.213 663.408
C 625.782 654.035 608.601 654.963 599.239 665.5
C 594.007 671.389 591.98 678.936 591.436 686.621 Z"
opacity="1" fill="rgb(68,69,69)" fill-rule="evenodd" />
<path d="
M 569.396 355.587
C 569.857 352.484 570.899 349.271 572.396 346.509
C 580.512 331.531 599.502 326.954 613.728 336.148
C 616.632 338.024 619.01 340.458 620.998 343.281
C 622.947 346.048 624.514 349.25 625.272 352.56
C 626.139 356.348 626.37 360.357 625.739 364.199
C 622.418 384.417 598.409 394.93 581.419 383.443
C 578.576 381.52 576.171 379.046 574.234 376.217
C 572.325 373.431 570.834 370.472 570.088 367.16
C 569.226 363.336 568.815 359.492 569.396 355.587 Z"
opacity="1" fill="rgb(111,181,139)" fill-rule="evenodd" />
<path d="
M 575.772 399.857
C 577.484 399.16 579.425 399.03 581.239 398.728
C 585.611 398.001 590.061 397.637 594.49 397.54
C 597.681 397.471 600.834 397.46 604.024 397.613
C 619.585 398.358 641.554 402.444 646.246 420.093
C 646.934 422.68 647.28 425.435 647.247 428.113
C 647.164 434.913 643.305 442.169 640.318 448.13
C 632.722 463.291 623.456 476.857 610.979 488.416
C 609.969 488.597 608.87 487.772 607.972 487.38
C 605.922 486.484 603.831 485.786 601.745 484.99
C 596.774 483.092 591.626 481.438 586.53 479.91
C 584.32 479.247 581.84 478.959 579.704 478.166
C 579.736 462.944 579.782 447.721 579.786 432.498
C 579.788 424.624 580.551 416.032 578.968 408.271
C 578.37 405.344 576.965 402.576 575.772 399.857 Z"
opacity="1" fill="rgb(111,181,139)" fill-rule="evenodd" />
<path d="
M 601.847 311.509
C 602.832 309.964 604.616 308.944 606.106 307.937
C 609.319 305.767 612.705 303.767 616.08 301.86
C 617.617 300.991 619.582 299.63 621.408 299.731
C 622.724 300.644 624.179 302.271 623.845 303.988
C 623.42 305.38 621.091 306.602 619.985 307.431
C 616.408 310.112 612.539 312.513 608.456 314.345
C 607.139 314.935 605.104 316.086 603.639 315.684
C 602.648 314.933 601.928 313.967 601.686 312.736
C 601.679 311.902 601.625 312.311 601.847 311.509 Z"
opacity="1" fill="rgb(110,183,140)" fill-rule="evenodd" />
<path d="
M 623.273 275.369
C 624.645 273.925 626.667 271.583 628.583 270.906
C 630.294 270.302 632.441 271.256 634.11 271.629
C 637.575 272.402 641.017 273.273 644.475 274.074
C 645.897 274.403 647.503 275.021 648.978 274.901
C 650.993 274.738 653.725 272.165 655.39 271.061
C 658.756 268.828 662.055 266.494 665.428 264.272
C 667.598 262.842 669.96 261.574 671.913 259.847
C 672.072 259.177 670.356 258.32 669.818 257.978
C 667.663 256.607 665.468 255.305 663.298 253.958
C 657.946 250.635 652.612 247.283 647.283 243.924
C 643.621 241.616 639.816 239.567 636.726 236.518
C 636.905 235.593 637.728 234.778 638.317 234.066
C 641.194 230.585 646.264 229.455 650.563 230.125
C 654.653 230.763 658.581 232.156 662.617 233.028
C 673.949 235.475 685.162 238.248 696.622 240.088
C 698.358 240.367 700.561 241.121 702.314 240.697
C 704.349 240.204 706.709 238.085 708.436 236.911
C 712.605 234.078 717.586 230.524 722.593 229.526
C 726.427 228.761 732.297 228.557 734.789 232.238
C 737.482 236.216 732.968 241.068 730.202 243.451
C 726.058 247.021 721.027 249.832 716.412 252.753
C 714.585 253.91 711.498 255.232 710.268 257.054
C 709.735 257.843 709.649 259.054 709.468 259.965
C 709.029 262.172 708.64 264.388 708.19 266.594
C 706.391 275.403 704.591 284.219 702.945 293.059
C 702.044 297.895 701.49 302.871 700.142 307.611
C 699.062 311.407 696.465 312.823 693.225 314.673
C 692.158 315.283 690.562 316.396 689.296 316.015
C 686.658 314.028 687.005 308.158 686.519 305.131
C 684.918 295.176 682.501 285.291 681.144 275.314
C 675.145 278.815 669.01 282.106 662.933 285.479
C 659.319 287.484 655.789 290.247 651.816 291.492
C 647.403 292.874 641.744 291.845 637.646 289.908
C 635.547 288.916 634.017 286.827 632.287 285.333
C 628.952 282.453 625.821 279.487 622.987 276.11
C 623.082 275.863 623.177 275.616 623.273 275.369 Z"
opacity="1" fill="rgb(68,68,68)" fill-rule="evenodd" />
<path d="
M 642.058 312.733
C 645.287 312.694 648.646 312.77 651.722 311.64
C 657.76 309.422 661.974 304.543 667.602 301.661
C 668.156 302.057 668.296 303.348 668.472 303.992
C 668.975 305.834 669.44 307.688 669.943 309.53
C 671.723 316.045 672.461 324.596 677.486 329.606
C 681.189 333.3 686.989 334.069 691.925 333.122
C 693.315 332.855 696.271 330.787 697.472 331.222
C 699.03 334.12 701.038 339.243 700.735 342.557
C 700.452 345.649 698.216 349.147 696.839 351.889
C 691.997 361.53 685.001 370.32 676.456 376.903
C 674.321 378.548 672.171 380.077 669.918 381.556
C 668.819 382.278 667.715 383.423 666.507 383.907
C 665.426 358.449 654.871 334.282 642.058 312.733 Z"
opacity="1" fill="rgb(111,183,140)" fill-rule="evenodd" />
<path d="
M 682.887 637.064
C 683.567 635.055 685.129 633.374 687.197 632.811
C 689.659 632.141 692.537 632.372 695.07 632.353
C 699.225 632.324 703.401 632.111 707.551 632.407
C 709.987 632.581 712.898 632.906 714.661 634.798
C 716.369 636.63 717.087 639.629 717.955 641.923
C 719.778 646.744 721.55 651.582 723.429 656.381
C 728.133 668.393 732.895 680.412 737.457 692.48
C 739.352 697.495 741.884 702.362 743.592 707.429
C 743.951 707.523 744.089 706.652 744.17 706.375
C 744.634 704.794 745.242 703.281 745.792 701.727
C 748.027 695.409 750.114 689.038 752.322 682.711
C 756.382 671.072 760.256 659.315 764.554 647.765
C 766.114 643.574 766.951 637.444 770.68 634.544
C 774.998 631.187 782.146 632.255 787.285 632.347
C 790.328 632.402 794.592 631.877 797.423 633.118
C 798.06 633.397 798.657 633.842 799.21 634.257
C 803.545 637.51 800.324 641.32 798.734 645.207
C 794.483 655.599 790.7 666.179 786.419 676.557
C 774.9 704.48 764.938 733.032 753.454 760.974
C 750.134 769.051 746.781 778.422 740.611 784.813
C 735.56 790.045 727.738 792.885 720.649 793.735
C 714.016 794.531 705.603 794.96 699.496 791.844
C 692.045 788.042 689.688 777.084 695.388 770.73
C 700.856 764.636 709.215 768.537 716.209 767.082
C 722.42 765.789 725.217 758.266 726.962 753.009
C 727.36 751.808 728.044 750.624 728.31 749.391
C 728.534 748.354 727.704 747.191 727.291 746.291
C 726.119 743.737 725.049 741.125 723.977 738.527
C 719.929 728.713 715.787 718.932 711.8 709.094
C 704.973 692.248 697.946 675.367 690.68 658.709
C 688.587 653.909 686.531 649.092 684.626 644.216
C 683.773 642.031 682.496 639.46 682.887 637.064 Z"
opacity="1" fill="rgb(68,69,68)" fill-rule="evenodd" />

</svg>